<svg xmlns="http://www.w3.org/2000/svg" xmlns:xlink="http://www.w3.org/1999/xlink" preserveAspectRatio="xMidYMid" width="28.531" height="22.19" viewBox="0 0 28.531 22.19">
  <defs>
    <style>
      .cls-1 {
        fill: #f7f8f8;
        opacity: 0.67;
        fill-rule: evenodd;
      }
    </style>
  </defs>
  <path d="M12.936,2.252 C12.049,2.672 11.059,3.250 9.966,3.978 C8.870,4.708 8.016,5.408 7.404,6.081 C6.703,6.846 6.096,7.698 5.580,8.648 C5.071,9.599 4.735,10.685 4.572,11.910 L6.348,11.910 C8.185,11.910 9.620,12.257 10.649,12.951 C11.677,13.645 12.301,14.613 12.519,15.850 C12.802,17.454 12.382,18.908 11.261,20.221 C10.136,21.536 8.645,22.193 6.778,22.193 C4.809,22.193 3.295,21.662 2.227,20.596 C1.160,19.531 0.478,18.157 0.181,16.473 C-0.402,13.164 0.432,9.991 2.684,6.957 C4.933,3.923 7.923,1.602 11.660,0.002 L12.936,2.252 ZM28.524,2.252 C27.637,2.672 26.646,3.250 25.553,3.978 C24.458,4.708 23.604,5.408 22.991,6.081 C22.291,6.846 21.683,7.698 21.168,8.648 C20.659,9.599 20.323,10.685 20.160,11.910 L21.936,11.910 C23.772,11.910 25.207,12.257 26.236,12.951 C27.265,13.645 27.889,14.613 28.107,15.850 C28.390,17.454 27.970,18.908 26.848,20.221 C25.724,21.536 24.232,22.193 22.365,22.193 C20.397,22.193 18.882,21.662 17.815,20.596 C16.747,19.531 16.065,18.157 15.768,16.473 C15.185,13.164 16.019,9.991 18.272,6.957 C20.520,3.923 23.511,1.602 27.247,0.002 L28.524,2.252 Z" class="cls-1"/>
</svg>
